PathFileType	4	(X/Y/Z)	Patient4_TMGait_0pt4_02_right_09.trc.trc
DataRate	CameraRate	NumFrames	NumMarkers	Units	OrigDataRate	OrigDataStartFrame	OrigNumFrames
77.348066298343	77.348066298343	4	33	mm	77.348066298343	53	       141
Frame#	Time	Sacral			L.Shoulder			Chest			R.Shoulder			Neck			R.ASIS			L.ASIS			R.Thigh.Superior			R.Thigh.Lateral			R.Thigh.Inferior			R.Patella			L.Thigh.Superior			L.Thigh.Lateral			L.Thigh.Inferior			L.Patella			L.Shank.Superior			L.Shank.Lateral			L.Shank.Inferior			R.Shank.Superior			R.Shank.Lateral			R.Shank.Inferior			R.Heel			R.Midfoot.Superior			R.Midfoot.Lateral			R.Toe			L.Heel			L.Midfoot.Lateral			L.Midfoot.Superior			L.Toe			L.Elbow			L.Wrist			R.Elbow			R.Wrist			
		X1	Y1	Z1	X2	Y2	Z2	X3	Y3	Z3	X4	Y4	Z4	X5	Y5	Z5	X6	Y6	Z6	X7	Y7	Z7	X8	Y8	Z8	X9	Y9	Z9	X10	Y10	Z10	X11	Y11	Z11	X12	Y12	Z12	X13	Y13	Z13	X14	Y14	Z14	X15	Y15	Z15	X16	Y16	Z16	X17	Y17	Z17	X18	Y18	Z18	X19	Y19	Z19	X20	Y20	Z20	X21	Y21	Z21	X22	Y22	Z22	X23	Y23	Z23	X24	Y24	Z24	X25	Y25	Z25	X26	Y26	Z26	X27	Y27	Z27	X28	Y28	Z28	X29	Y29	Z29	X30	Y30	Z30	X31	Y31	Z31	X32	Y32	Z32	X33	Y33	Z33	

53	12.122285714286	906.017902743219	1006.541135508942	524.345383760476	1073.661538036791	1432.012251352114	319.962328753007	1191.969289377296	1362.992122784788	469.649526680487	1130.058508279824	1442.836342130868	649.666388821518	1091.689557409938	1496.760414040629	472.171532096023	1147.453930784752	943.794546740959	615.611519037104	1102.194773886033	967.548492793651	344.882070329911	1181.500949328912	739.861171175682	578.373808909801	1103.619031736159	631.532566069686	644.528701232296	1170.606386506767	579.164951985723	556.344872426806	1168.327801274568	491.144304689766	560.819722037965	1196.526041060070	794.147172107376	366.960824378934	1157.177509204161	665.629461665858	288.467636385914	1267.971726906710	612.503570446187	342.997278391088	1292.065860030592	532.454825241889	332.789523174602	1248.119911261164	456.756512616380	323.840085850832	1129.964794061088	367.626083664978	279.937189973561	1172.033518081813	240.277336716806	325.890233380184	1138.211915471713	402.864407416661	569.621890329921	1068.854876531816	300.262625935350	634.722175737818	1102.547132588001	205.405716806745	567.490030676865	962.836166255147	42.754324559806	544.957102136604	1135.326760999239	97.199596442552	572.898664916615	1049.008880474946	37.516504374107	616.271753770085	1256.770976834619	43.745639880106	596.119327952857	1024.949221978298	109.766675202694	371.931218188501	1086.950339655679	90.663581278796	285.224108806736	1183.721329662395	134.100569259303	300.404930274771	1292.001526120127	58.413108548998	259.468626480693	1016.461944578096	1080.733844381395	210.933597469816	1087.647469251042	830.378433786343	176.549265693363	1158.933110870438	1110.537776137362	799.376175971054	1376.004789749110	985.060119610307	744.725871665714	
54	12.135214285714	905.373810594053	1007.405323686080	525.894796045440	1073.324250226630	1432.010574083279	320.168077352245	1192.429663159820	1362.565172869399	468.976394823607	1132.301465374320	1442.951972182375	649.372478518479	1092.641941947234	1496.802777186237	472.203292686067	1146.845279572191	943.511241487955	615.428210729602	1100.202157988529	967.764278994085	344.868226991917	1178.863313586138	739.242510507300	578.072692678878	1100.599997895819	631.521674789235	644.945285040544	1166.532976546869	578.689791807248	556.436086171771	1163.611413680715	490.888628267334	561.149416851957	1193.305768113803	793.768527583207	367.436937352151	1153.703702168542	665.683950768313	288.541601925813	1263.465944642510	611.884545562881	344.235821827801	1288.551132390916	533.975683397129	333.730506739558	1248.589228370952	458.240454173407	323.918506327466	1137.130436793580	362.125548735177	278.232908014328	1187.003760399599	237.244187877464	324.078480469053	1133.515179240991	402.692792676274	569.952012588585	1064.029351471972	300.086619456429	635.034431955881	1097.514216442292	205.277849404171	567.680624838507	957.582180108467	42.692886855817	544.996453585790	1130.091268173547	97.137163657592	572.907147055613	1043.764717473760	37.471178402447	616.340893422425	1251.512508250858	43.783014925447	596.116725459776	1048.845096044427	96.289242790823	368.185905589613	1112.789583697374	82.537410546099	281.826681457508	1206.131901153811	132.427901627257	298.089851709854	1319.844833447080	64.932861277880	257.482894373888	1011.600703117508	1081.294767304835	212.053201750707	1074.820554784937	828.998744961673	177.327480614252	1165.089185666514	1111.202175866815	798.723448992953	1385.914598324964	995.835587818519	739.347650348215	
55	12.148142857143	904.772438173136	1008.144695675956	527.238526231573	1073.086261342116	1431.906144137941	320.205954271765	1192.886968447588	1362.029828814012	468.212571986861	1134.414042395784	1442.949936742612	648.943050438374	1093.583946254031	1496.754766395534	472.086498473329	1146.226220102976	943.182496934895	615.182462547417	1098.331130782384	967.805760838121	344.767336825626	1176.322009203097	738.606519665780	577.754954826917	1097.694286911620	631.455188037815	645.296842946806	1162.603802995843	578.195816942815	556.484985434172	1159.055075603186	490.614446467306	561.444635929602	1189.882905089501	792.845643852047	367.822115079050	1149.877611693843	665.402877935147	288.326362262895	1258.387009625127	610.652276466435	345.418087724094	1284.393192654571	535.026719171954	334.703467801518	1248.408661254397	459.528051252574	324.087795542038	1144.170977531510	356.876076011449	276.274832404841	1201.371851945656	234.954356798162	322.462959034608	1128.949330415984	402.476314590848	570.231839824972	1059.306417964587	299.893148753600	635.307634925037	1092.527751595721	205.120254935158	567.836111936110	952.327236359860	42.632102805366	545.037328123620	1124.847761182919	97.064688558944	572.900237850444	1038.519896226150	37.426312296115	616.403537191310	1246.258023136142	43.820628588698	596.121381535799	1072.421189472327	84.475819661578	364.220142305443	1138.414105445391	75.733967243560	278.641638493523	1227.925939699461	131.711796678388	296.280195630876	1346.573964343515	72.287471200214	256.931651377919	1006.659956568956	1081.827550222343	213.061436881005	1062.727255487425	828.021767736364	178.229682624307	1171.107739797196	1111.632853538108	797.623280860863	1395.065480174096	1006.289073506246	733.636849458880	
56	12.161071428571	904.218889744196	1008.772627380953	528.359858923070	1072.921821759102	1431.716613723935	320.073591402761	1193.322726560141	1361.426196337696	467.365125382786	1136.359242708948	1442.867848531757	648.378783745579	1094.485518555333	1496.640731557706	471.818835486661	1145.610416720605	942.820305012623	614.866527242113	1096.599332378066	967.714880478154	344.580129030375	1173.903867156117	737.956964391739	577.425884914546	1094.904044049665	631.339955147272	645.564207952533	1158.834476799640	577.681970954645	556.477744066664	1154.667167308682	490.318792043711	561.676610751749	1186.327592540178	791.480611548297	368.104570634140	1145.814249540845	664.864061550803	287.828595116964	1252.931526400300	608.953693137064	346.456714788305	1279.767604828749	535.679695905642	335.648617286439	1247.662563051637	460.658346829275	324.303399000626	1150.913974717257	352.048499683472	274.174360893396	1214.840966748455	233.458855107175	321.083434517129	1124.519361325169	402.217626840569	570.442608464730	1054.690184647008	299.694328769876	635.528992900812	1087.590220221646	204.939046048575	567.950490882639	947.075122005380	42.576839420562	545.079736961544	1119.598521279875	96.986005595269	572.880388891619	1033.276686585159	37.385004784354	616.460472845721	1241.010312844077	43.857409437294	596.136722977003	1095.104956507823	74.543833490658	360.253306474562	1163.206629319555	70.318437426901	275.825554642309	1248.640921049763	131.914587897049	295.002965680101	1371.665139369853	80.215089771352	257.751022552321	1001.668624849334	1082.340812946241	213.972878327952	1051.404625535613	827.382772231661	179.196708430657	1176.972089142647	1111.865723031288	796.067124059734	1403.453196124903	1016.335400440835	727.625515646236	
